<svg width="46" height="38" viewBox="0 0 46 38" fill="none" xmlns="http://www.w3.org/2000/svg">
<path d="M35.0482 8.59084C35.0593 8.5475 35.0682 8.50361 35.0749 8.45936V2.01025C35.0748 1.62904 34.9233 1.26346 34.6537 0.9939C34.3842 0.724339 34.0186 0.572856 33.6374 0.572754H26.0587C25.7788 0.572775 25.505 0.654532 25.2709 0.807986C25.0368 0.96144 24.8526 1.17991 24.741 1.43658L21.6764 8.48368H16.7448C15.1305 8.48779 13.5587 9.00062 12.2526 9.94926L11.4169 10.6684L2.25187 5.90542C2.00835 5.77893 1.73371 5.72477 1.4604 5.74932C1.18708 5.77388 0.926504 5.87613 0.709427 6.04401C0.492351 6.21188 0.327843 6.43836 0.235331 6.69671C0.142818 6.95506 0.126163 7.23449 0.187333 7.502L2.64049 18.2187L0.468105 20.0876C0.310048 20.2236 0.183477 20.3924 0.0971754 20.5822C0.0108736 20.7721 -0.0330932 20.9784 -0.0316745 21.1869C-0.0302558 21.3955 0.0165144 21.6012 0.105391 21.7898C0.194268 21.9785 0.323123 22.1455 0.483017 22.2794L2.80778 24.2232L0.187333 35.6699C0.126021 35.9373 0.142608 36.2168 0.23513 36.4751C0.327653 36.7335 0.492239 36.9599 0.709419 37.1277C0.926598 37.2954 1.18728 37.3975 1.46063 37.4217C1.73398 37.446 2.00855 37.3914 2.25187 37.2645L12.2128 32.0879L12.4135 32.2557C13.7011 33.0564 15.1753 33.5074 16.6905 33.5641H33.4913C36.6811 33.5647 39.7512 32.3491 42.0761 30.1651C44.4011 27.981 45.8058 24.9927 46.0043 21.809C46.2028 18.6253 45.1801 15.4857 43.1444 13.0298C41.1088 10.5739 38.2134 8.98645 35.0482 8.59084V8.59084ZM27.0001 3.44775H32.1998V8.45936L32.2047 8.48368H24.8106L27.0001 3.44775ZM3.68385 9.88936L9.06924 12.6881L5.10581 16.0978L3.68385 9.88936ZM3.68385 33.2815L5.28396 26.2939L9.82454 30.0908L3.68385 33.2815ZM14.1393 29.961L3.6276 21.1619L12.5041 13.5165L12.5591 13.4691L14.0119 12.2177C14.813 11.6573 15.7672 11.3574 16.7448 11.3587H32.1998V30.6891H16.6905C15.7966 30.639 14.925 30.3903 14.1393 29.961V29.961ZM35.0747 30.529V11.5188C37.3304 11.8868 39.3817 13.0449 40.862 14.7862C42.3422 16.5275 43.155 18.7385 43.155 21.0239C43.155 23.3094 42.3422 25.5203 40.862 27.2616C39.3817 29.0029 37.3304 30.1611 35.0747 30.529V30.529Z" fill="#0069FF"/>
<path d="M15.8389 16.9268C15.5691 16.6581 15.2038 16.5074 14.8231 16.5078C14.4424 16.5082 14.0774 16.6596 13.8081 16.9288C13.5389 17.198 13.3875 17.563 13.3871 17.9437C13.3868 18.3245 13.5375 18.6898 13.8061 18.9595L15.8632 21.0156L13.5254 23.3534C13.3907 23.4866 13.2836 23.6451 13.2104 23.8199C13.1372 23.9946 13.0992 24.182 13.0986 24.3715C13.0981 24.5609 13.135 24.7486 13.2073 24.9237C13.2795 25.0988 13.3857 25.2579 13.5196 25.3919C13.6536 25.5259 13.8127 25.632 13.9878 25.7042C14.1629 25.7765 14.3506 25.8134 14.5401 25.8129C14.7295 25.8123 14.917 25.7744 15.0917 25.7011C15.2664 25.6279 15.4249 25.5208 15.5581 25.3861L18.9123 22.0319C19.0458 21.8985 19.1517 21.74 19.224 21.5657C19.2962 21.3913 19.3334 21.2043 19.3334 21.0156C19.3334 20.8268 19.2962 20.6399 19.224 20.4655C19.1517 20.2911 19.0458 20.1327 18.9123 19.9992L15.8389 16.9268Z" fill="#0069FF"/>
<path d="M26.2102 22.9326H22.6184C22.2371 22.9326 21.8715 23.0841 21.6019 23.3537C21.3323 23.6232 21.1809 23.9889 21.1809 24.3701C21.1809 24.7514 21.3323 25.117 21.6019 25.3866C21.8715 25.6562 22.2371 25.8076 22.6184 25.8076H26.2102C26.5915 25.8076 26.9571 25.6562 27.2267 25.3866C27.4963 25.117 27.6477 24.7514 27.6477 24.3701C27.6477 23.9889 27.4963 23.6232 27.2267 23.3537C26.9571 23.0841 26.5915 22.9326 26.2102 22.9326V22.9326Z" fill="#0069FF"/>
</svg>
